<?xml version="1.0" standalone="no"?>
<!DOCTYPE svg PUBLIC "-//W3C//DTD SVG 20010904//EN"
 "http://www.w3.org/TR/2001/REC-SVG-20010904/DTD/svg10.dtd">
<svg version="1.0" xmlns="http://www.w3.org/2000/svg"
 width="512.000000pt" height="512.000000pt" viewBox="0 0 512.000000 512.000000"
 preserveAspectRatio="xMidYMid meet">
<metadata>
Created by potrace 1.11, written by Peter Selinger 2001-2013
</metadata>
<g transform="translate(0.000000,512.000000) scale(0.100000,-0.100000)"
fill="#000000" stroke="none">
<path d="M2750 4742 c-35 -17 -82 -82 -101 -139 -6 -18 -15 -33 -20 -33 -6 0
-7 -5 -4 -10 8 -13 -18 -8 -27 5 -5 6 -8 6 -8 -1 0 -6 -19 -12 -42 -13 -95 -5
-114 -7 -123 -12 -6 -3 -25 -5 -42 -4 -18 0 -33 -2 -33 -5 0 -3 -12 -6 -27 -7
-16 -1 -44 -4 -63 -7 -19 -3 -46 -7 -60 -9 -14 -2 -31 -7 -38 -11 -7 -4 -12
-5 -12 -3 0 3 -17 1 -37 -4 -54 -14 -108 -26 -153 -35 -13 -3 -29 -9 -36 -15
-6 -5 -14 -6 -17 -2 -4 3 -13 1 -20 -5 -8 -7 -17 -9 -20 -5 -4 3 -13 0 -22 -7
-9 -7 -18 -10 -22 -7 -3 4 -11 3 -18 -3 -6 -5 -27 -11 -46 -13 -19 -2 -39 -5
-44 -8 -6 -3 -26 -6 -45 -8 -19 -2 -37 -6 -40 -10 -3 -3 -14 -7 -25 -8 -54 -5
-70 -9 -75 -15 -3 -4 -20 -8 -38 -10 -18 -1 -32 -5 -32 -8 0 -4 -6 -7 -14 -7
-23 0 -190 -56 -197 -67 -4 -5 -14 -6 -23 -3 -9 4 -16 2 -16 -2 0 -9 -54 -34
-77 -35 -6 -1 -15 -5 -19 -9 -12 -11 -97 -50 -107 -49 -4 1 -7 -2 -7 -7 0 -5
-13 -14 -30 -21 -16 -7 -30 -16 -30 -21 0 -5 -7 -9 -15 -9 -8 0 -56 -42 -107
-93 -107 -108 -129 -133 -121 -141 4 -3 -1 -6 -9 -6 -9 0 -22 -13 -30 -30 -7
-16 -16 -30 -20 -30 -5 0 -8 -6 -8 -13 0 -8 -9 -22 -20 -32 -11 -10 -20 -23
-20 -29 0 -6 -9 -22 -20 -36 -11 -14 -20 -33 -20 -42 0 -10 -4 -18 -9 -18 -9
0 -26 -48 -23 -62 1 -5 -2 -8 -8 -8 -5 0 -10 -8 -10 -18 0 -10 -3 -22 -8 -26
-4 -4 -7 -11 -7 -14 -2 -24 -50 -151 -66 -174 -11 -15 -17 -28 -12 -28 4 0 3
-4 -3 -8 -13 -8 -80 -147 -90 -186 -3 -14 -10 -29 -15 -32 -5 -3 -7 -10 -4
-15 4 -5 3 -15 -2 -21 -4 -7 -8 -17 -9 -23 -1 -5 -5 -26 -9 -45 -4 -19 -9 -48
-11 -65 -6 -46 -5 -237 1 -265 3 -14 6 -41 6 -60 1 -19 4 -39 7 -45 4 -5 8
-19 10 -30 7 -48 12 -63 40 -125 8 -19 15 -37 16 -40 2 -26 158 -271 185 -290
14 -10 63 -79 65 -92 1 -7 5 -19 10 -26 4 -7 5 -16 2 -19 -3 -3 -1 -12 5 -20
6 -7 8 -13 4 -13 -4 0 -2 -7 5 -15 7 -9 10 -18 7 -22 -4 -3 -2 -14 4 -25 6
-11 12 -29 15 -41 2 -12 18 -71 34 -132 17 -60 33 -117 35 -125 2 -8 13 -45
24 -83 11 -37 21 -71 22 -75 2 -8 1 -6 29 -107 11 -44 22 -87 23 -95 2 -8 5
-19 9 -25 3 -5 9 -26 14 -45 4 -19 9 -39 10 -45 2 -5 8 -28 14 -50 6 -22 13
-47 15 -55 2 -8 9 -34 15 -58 14 -56 73 -178 108 -220 119 -145 239 -237 434
-331 168 -81 389 -154 538 -177 19 -3 42 -7 50 -9 32 -9 98 -18 223 -32 126
-14 677 -8 677 7 0 3 10 5 23 6 26 1 101 11 137 19 14 3 39 8 55 10 17 3 75
17 129 31 313 80 563 205 733 367 69 66 173 204 173 230 0 7 6 24 14 38 11 22
25 76 27 106 1 5 5 16 10 25 5 9 12 34 15 55 3 21 11 44 16 51 6 6 8 12 5 12
-3 0 5 34 18 75 12 41 21 75 19 75 -3 0 0 8 5 18 6 11 12 30 14 43 5 27 41
155 58 208 6 18 13 47 16 65 3 17 9 39 14 49 5 9 7 17 4 17 -3 0 -1 8 4 19 6
10 13 33 16 51 3 18 10 40 14 49 5 9 11 30 15 46 8 46 18 79 27 91 5 6 6 13 4
16 -3 3 1 25 9 49 8 24 17 56 20 70 4 27 16 46 94 157 23 34 42 64 42 67 0 4
8 19 18 33 31 45 102 248 116 333 3 19 8 45 10 59 9 53 16 114 22 208 7 114 7
106 5 112 -1 3 -4 30 -6 60 -5 66 -13 107 -25 130 -5 10 -7 20 -4 23 3 3 2 12
-2 19 -5 7 -10 22 -11 33 -5 34 -35 129 -46 143 -5 6 -6 12 -1 12 4 0 3 5 -4
12 -7 7 -12 20 -12 30 0 10 -4 18 -10 18 -5 0 -10 6 -10 14 0 16 -48 103 -61
112 -5 3 -7 10 -4 15 4 5 1 9 -4 9 -6 0 -11 7 -11 15 0 8 -4 15 -10 15 -5 0
-10 6 -10 14 0 8 -4 16 -8 18 -5 2 -23 24 -41 50 -31 47 -146 168 -158 168 -3
0 -13 8 -22 18 -9 10 -32 29 -51 42 -19 13 -37 27 -40 30 -11 14 -99 70 -109
70 -6 0 -11 4 -11 9 0 5 -8 12 -17 15 -29 11 -78 38 -84 48 -3 5 -13 10 -21
12 -8 1 -27 9 -41 19 -15 9 -33 17 -42 17 -9 0 -13 5 -10 10 3 6 -3 10 -14 10
-12 0 -21 5 -21 11 0 5 -4 8 -9 4 -5 -3 -15 0 -23 7 -7 7 -20 14 -28 16 -8 2
-30 10 -49 19 -18 8 -41 17 -50 18 -9 2 -18 4 -21 5 -3 1 -8 2 -12 1 -5 0 -8
4 -8 10 0 6 -7 9 -15 5 -8 -3 -15 0 -15 6 0 6 -3 9 -6 6 -3 -4 -20 0 -39 7
-18 8 -35 11 -39 8 -3 -4 -6 -2 -6 3 0 5 -10 11 -22 11 -13 1 -24 7 -26 13 -2
5 -11 10 -21 10 -9 0 -22 5 -29 12 -7 7 -12 8 -12 4 0 -5 -7 -3 -15 4 -8 7
-15 9 -15 5 0 -4 -6 -3 -12 2 -13 10 -109 45 -136 49 -8 1 -21 6 -30 10 -21 9
-43 15 -59 16 -7 1 -13 5 -13 9 0 4 -8 7 -17 7 -10 0 -53 9 -97 21 -43 12 -84
20 -90 18 -6 -2 -19 0 -29 5 -20 10 -27 12 -101 23 l-49 7 32 19 c17 10 47 19
65 19 64 0 70 39 15 98 -63 67 -119 88 -169 64z"/>
</g>
</svg>
